<svg width="138" height="47" viewBox="0 0 138 47" fill="none" xmlns="http://www.w3.org/2000/svg">
<path fill-rule="evenodd" clip-rule="evenodd" d="M15.9603 9.13624L38.7914 -0.0001391L34.337 9.8636L37.1576 12.8717L39.0604 14.8563C34.337 14.8563 29.9774 16.5618 26.5668 20.0582C23.4392 23.2646 21.0931 30.5046 22.5453 34.626C22.0509 34.0892 19.3262 31.0971 18.7307 30.5046L15.9328 27.5749L12.6535 28.8609C13.0607 30.2722 14.2185 31.6367 14.5491 33.6647C15.4686 33.909 15.8968 34.8046 15.5518 35.6686L18.3409 39.4502L14.6036 41.2082L13.6832 36.5476C12.7306 36.4828 12.0762 34.8031 13.0933 33.9151C12.8079 32.0439 11.9079 30.6899 11.4449 29.3796L11.3666 29.4023L5.88259 31.5793L15.9603 9.13624Z" fill="url(#paint0_linear_7805_462)"/>
<circle cx="38.5245" cy="31.515" r="15.4418" fill="url(#paint1_linear_7805_462)"/>
<path d="M38.3546 31.3893C36.6114 31.3893 34.4212 31.3222 33.4379 31.1882C33.1697 30.7859 33.058 30.3389 33.058 29.8919L33.1474 29.8249C33.9743 30.406 35.4716 30.6518 36.969 30.7412C38.2429 29.1097 39.7179 26.8972 41.1929 24.193L38.7122 22.5169L38.7569 22.204C39.9637 22.271 41.0365 22.3157 42.8244 22.3157C44.0312 22.3157 46.0202 22.2934 46.8695 22.2263L47.0483 22.4945C46.0426 26.3608 45.7073 31.0764 45.7073 34.384C45.7073 35.7696 45.9979 36.6189 46.713 36.6189C47.1153 36.6189 47.4505 36.4848 47.7411 36.1272L47.8081 36.1496L47.7411 36.6412C47.0706 37.4235 45.9085 37.8034 44.5676 37.8034C42.8244 37.8034 41.841 36.82 41.841 34.6522C41.841 33.7583 41.9081 32.5961 41.9975 31.3222C40.88 31.3669 39.4944 31.3893 38.3546 31.3893ZM38.5557 30.7635C39.7402 30.7635 40.9247 30.7412 42.0422 30.6518C42.2656 28.104 42.6456 25.1987 43.0255 23.1426H42.4444C40.9694 26.1597 39.6732 28.7298 38.5557 30.7635ZM36.1868 31.7022H38.0417C35.7622 35.792 33.9519 37.8034 31.0913 37.8034C29.9068 37.8034 28.9681 37.2894 28.6329 36.306L28.8564 35.9931C29.0575 36.2613 29.3928 36.4625 29.728 36.4625C31.0466 36.4625 33.3038 35.1439 36.1868 31.7022Z" fill="white"/>
<path d="M59.6549 42.1201L66.3519 23.5374H70.7739L77.4453 42.1201H73.4833L71.7708 37.2124H63.7702L61.981 42.1201H59.6549ZM64.5115 35.142H71.0551L67.8344 25.9146L64.5115 35.142ZM79.8166 42.1201V22.515H83.114V42.1201H79.8166ZM97.4777 42.1201L97.0688 39.9219C96.532 41.2255 94.7683 42.3757 92.6723 42.3757C88.8126 42.3757 86.9978 39.8708 86.9978 35.9855V28.624H90.2951V35.8066C90.2951 38.3882 91.1898 40.1519 93.618 40.1519C95.9185 40.1519 97.0688 38.2604 97.0688 35.96V28.624H100.366V42.1201H97.4777ZM107.748 34.7075V42.1201H104.451V28.624H107.339L107.748 30.8478C108.566 29.4164 110.125 28.3684 112.247 28.3684C115.979 28.3684 118.151 30.6433 118.151 34.3496V42.1201H114.854V34.6052C114.854 32.2537 113.704 30.5922 111.327 30.5922C109.077 30.5922 107.748 32.4581 107.748 34.7075ZM135.673 35.3721C135.673 39.6663 132.605 42.3757 128.413 42.3757C124.222 42.3757 121.154 39.6918 121.154 35.3721C121.154 31.129 124.222 28.3684 128.413 28.3684C132.58 28.3684 135.673 31.129 135.673 35.3721ZM124.554 35.3721C124.554 38.2093 125.627 40.6632 128.413 40.6632C131.174 40.6632 132.273 38.2093 132.273 35.3721C132.273 32.5859 131.174 30.081 128.413 30.081C125.678 30.081 124.554 32.6115 124.554 35.3721Z" fill="#131F34"/>
<defs>
<linearGradient id="paint0_linear_7805_462" x1="35.341" y1="8.7555" x2="-2.22871" y2="39.0819" gradientUnits="userSpaceOnUse">
<stop stop-color="#FFA500"/>
<stop offset="1" stop-color="#FE3F10"/>
</linearGradient>
<linearGradient id="paint1_linear_7805_462" x1="43.6938" y1="16.0732" x2="33.3553" y2="46.9568" gradientUnits="userSpaceOnUse">
<stop stop-color="#1C43FE"/>
<stop offset="1" stop-color="#1334B0"/>
</linearGradient>
</defs>
</svg>
