<svg width="40" height="40" viewBox="0 0 40 40" fill="none" xmlns="http://www.w3.org/2000/svg">
<path d="M25.789 12.721C21.8989 6.99787 16.7033 3.95612 13.9824 5.81985C13.6828 6.03084 13.4224 6.29267 13.2132 6.59348C13.2132 6.61546 6.91425 19.3627 6.91425 19.3627L3.39777 21.7451C2.85794 22.1116 2.3956 22.5808 2.03715 23.126C1.67871 23.6712 1.43119 24.2816 1.30873 24.9225C1.18627 25.5634 1.19127 26.2221 1.32346 26.861C1.45564 27.4999 1.7124 28.1066 2.07909 28.6462L2.23733 28.8792C2.97852 29.9589 4.11549 30.7028 5.40164 30.9497C6.68778 31.1966 8.01939 30.9264 9.10766 30.1979L14.756 38.5188C15.5868 39.5429 17.1824 40.5627 19.1516 39.3627C19.5005 39.1365 19.7981 38.8397 20.0252 38.4914C20.2523 38.1432 20.4039 37.7512 20.4703 37.3407C20.5499 36.9325 20.5477 36.5125 20.4639 36.1051C20.3802 35.6977 20.2165 35.3109 19.9824 34.9671L15.0066 27.6264C15.0066 27.6264 26.7692 26.6902 26.8132 26.6726C27.1804 26.5957 27.5286 26.4463 27.8373 26.233C29.2351 25.2836 29.7362 23.2924 29.2527 20.6242C28.8176 18.1671 27.5824 15.3847 25.789 12.721ZM3.51645 28.0133L3.35821 27.7803C3.10521 27.4078 2.92816 26.9891 2.83718 26.5482C2.74621 26.1072 2.74309 25.6526 2.82801 25.2104C2.91294 24.7683 3.08423 24.3472 3.3321 23.9713C3.57996 23.5954 3.89952 23.2721 4.27249 23.0199L7.30986 20.9539L11.3186 26.8572L8.28129 28.9232C7.90875 29.1765 7.48993 29.3539 7.04879 29.4453C6.60764 29.5366 6.15281 29.5402 5.7103 29.4557C5.26779 29.3712 4.84627 29.2003 4.46984 28.9528C4.0934 28.7053 3.76943 28.386 3.51645 28.0133ZM18.7165 35.833C18.9567 36.1905 19.0453 36.6287 18.9629 37.0514C18.8805 37.4741 18.6338 37.8469 18.2769 38.088C17.9187 38.3285 17.4799 38.4172 17.0564 38.3348C16.633 38.2524 16.2594 38.0056 16.0175 37.6484L10.3868 29.3539L12.6505 27.8155L13.2483 27.7671L18.7165 35.833ZM12.7736 26.2594L8.40436 19.8242L12.5714 11.3275C12.9758 13.7144 14.1582 16.5495 16.0483 19.3319C17.9384 22.1144 20.1362 24.2594 22.2022 25.5166L12.7736 26.2594ZM25.7406 25.2352C23.6395 25.099 20.2197 22.7297 17.323 18.4616C14.4263 14.1935 13.4857 10.1539 14.1318 8.14513C14.2485 7.76807 14.4814 7.43752 14.7971 7.2007C15.1129 6.96388 15.4954 6.83289 15.8901 6.82645C17.9736 6.82645 21.5208 9.20886 24.5011 13.6001C26.1802 16.0704 27.4022 18.655 27.7362 20.9144C28.3912 25.2352 25.7406 25.2352 25.7406 25.2352Z" fill="#FFA500"/>
<path d="M20.2946 12.8835C19.7561 12.7778 19.202 12.7805 18.6647 12.8914C18.1273 13.0024 17.6174 13.2193 17.1649 13.5297C17.0815 13.5874 17.0103 13.661 16.9553 13.7462C16.9003 13.8315 16.8627 13.9267 16.8445 14.0265C16.8264 14.1263 16.828 14.2287 16.8494 14.3279C16.8708 14.427 16.9116 14.521 16.9693 14.6044C17.027 14.6878 17.1006 14.759 17.1859 14.814C17.2711 14.869 17.3663 14.9066 17.4661 14.9248C17.5659 14.9429 17.6683 14.9413 17.7675 14.9199C17.8666 14.8984 17.9606 14.8577 18.044 14.8C18.3306 14.6055 18.6527 14.4693 18.992 14.3992C19.3312 14.3292 19.6809 14.3267 20.0211 14.3918C20.3613 14.4569 20.6854 14.5883 20.9748 14.7787C21.2642 14.969 21.5132 15.2145 21.7078 15.5011C21.9023 15.7877 22.0385 16.1098 22.1085 16.449C22.1786 16.7883 22.1811 17.138 22.116 17.4782C22.0509 17.8184 21.9194 18.1424 21.7291 18.4318C21.5387 18.7212 21.2933 18.9703 21.0067 19.1648C20.8715 19.2581 20.7698 19.3923 20.7164 19.5476C20.6629 19.7029 20.6606 19.8712 20.7098 20.0279C20.7589 20.1846 20.8569 20.3215 20.9894 20.4185C21.1219 20.5155 21.282 20.5675 21.4462 20.567C21.6029 20.57 21.7566 20.5239 21.8858 20.4352C22.5695 19.972 23.1003 19.3164 23.4111 18.5513C23.7218 17.7862 23.7985 16.9461 23.6314 16.1374C23.4643 15.3287 23.0609 14.5878 22.4724 14.0085C21.8838 13.4293 21.1366 13.0377 20.3253 12.8835H20.2946Z" fill="#FFA500"/>
<path d="M26.7384 7.3713H26.8131C27.0033 7.37122 27.1868 7.30064 27.3281 7.17318C27.4693 7.04573 27.5583 6.87044 27.5779 6.68119L28.1713 0.914158C28.1848 0.812182 28.1777 0.708533 28.1505 0.609343C28.1232 0.510154 28.0763 0.417439 28.0126 0.336684C27.9489 0.255929 27.8696 0.188775 27.7795 0.139194C27.6894 0.0896133 27.5902 0.0586135 27.4879 0.0480286C27.3856 0.0374437 27.2822 0.0474888 27.1838 0.0775695C27.0854 0.10765 26.9941 0.157156 26.9152 0.223157C26.8363 0.289158 26.7714 0.370313 26.7244 0.461823C26.6775 0.553332 26.6493 0.653335 26.6416 0.755917L26.0526 6.52735C26.0317 6.73018 26.0922 6.93301 26.2208 7.09126C26.3494 7.24951 26.5355 7.35024 26.7384 7.3713Z" fill="#FFA500"/>
<path d="M36.6812 6.18435C36.5682 6.0141 36.3925 5.89543 36.1924 5.85426C35.9923 5.81308 35.784 5.85274 35.613 5.96457L30.2548 9.48105C30.1157 9.57292 30.0101 9.70751 29.9541 9.86455C29.8981 10.0216 29.8946 10.1926 29.9442 10.3518C29.9938 10.5109 30.0938 10.6497 30.2291 10.7471C30.3644 10.8446 30.5277 10.8954 30.6944 10.892C30.8499 10.8956 31.0029 10.8528 31.1339 10.769L36.4922 7.25248C36.6584 7.13552 36.7716 6.95754 36.807 6.7574C36.8424 6.55726 36.7972 6.35124 36.6812 6.18435Z" fill="#FFA500"/>
<path d="M38.3208 15.5735L32.0878 14.4526C31.8867 14.4164 31.6795 14.4617 31.5117 14.5783C31.344 14.695 31.2294 14.8735 31.1933 15.0746C31.1572 15.2757 31.2024 15.4829 31.319 15.6506C31.4357 15.8184 31.6142 15.9329 31.8153 15.9691L38.0439 17.0899H38.1801C38.3761 17.0957 38.5669 17.0263 38.7135 16.8961C38.8601 16.7659 38.9514 16.5846 38.9688 16.3893C38.9862 16.194 38.9283 15.9994 38.8071 15.8453C38.6858 15.6912 38.5103 15.5893 38.3164 15.5603L38.3208 15.5735Z" fill="#FFA500"/>
</svg>
