<svg width="40" height="40" viewBox="0 0 40 40" fill="none" xmlns="http://www.w3.org/2000/svg">
<path d="M39.2281 12.2743L30.7843 9.42063C30.4778 9.3175 30.1452 9.48157 30.0415 9.78815C29.9379 10.0947 30.1025 10.4273 30.409 10.5309L38.7723 13.3574L34.8355 15.2767C34.6721 15.1664 34.4887 15.0818 34.2897 15.0299L22.4816 11.9438C22.1063 10.0129 19.7288 9.20242 18.2685 10.5766C17.7631 11.0523 17.4732 11.723 17.4732 12.4169V12.4297C17.4773 13.2467 18.1536 13.9114 18.9807 13.9114H21.0194C21.5459 13.9114 22.0724 13.6367 22.3454 13.1195L33.3573 15.9975C29.8778 17.6939 22.0669 21.502 21.0712 21.9875C20.3684 22.3301 19.5853 22.3076 18.9288 21.9875L1.22764 13.3574L19.2173 7.27754C19.7219 7.1069 20.278 7.1069 20.7826 7.27754L27.8062 9.65135C28.1129 9.75487 28.4453 9.59056 28.549 9.28383C28.6526 8.97725 28.4881 8.64465 28.1815 8.54105L21.1579 6.16724C20.4111 5.91496 19.5888 5.91496 18.842 6.16724L0.771752 12.2743C-0.188304 12.599 -0.27495 13.9287 0.637525 14.3735L9.91135 18.8949C9.40117 21.3204 8.62221 23.9317 7.7756 26.2495C7.42902 27.1974 7.72763 28.2518 8.51846 28.8734C11.1948 30.9769 14.357 32.6018 17.5981 33.6464C19.1211 34.1371 20.8194 34.156 22.4015 33.6464C25.6436 32.6014 28.8061 30.9758 31.4811 28.8734C32.2748 28.2494 32.5693 27.1945 32.2239 26.2495C31.3952 23.9831 30.6056 21.3548 30.0882 18.8951L34.4505 16.7683V25.5876C33.7049 25.6447 33.1154 26.2683 33.1154 27.0282V28.7358C33.1154 28.9895 33.2255 29.2174 33.3998 29.3762L33.1821 32.6672C33.1396 33.3101 33.6508 33.8565 34.2954 33.8565H35.7778C36.422 33.8565 36.9335 33.3103 36.891 32.6672L36.6734 29.3762C36.8476 29.2174 36.9578 28.9896 36.9578 28.7358V27.0282C36.9578 26.2682 36.3681 25.6446 35.6225 25.5875V16.7556C35.6225 16.5755 35.5942 16.401 35.5436 16.2354L39.3624 14.3736C40.2737 13.9293 40.1898 12.5995 39.2281 12.2743ZM21.0194 12.7394H18.9807C18.7997 12.7394 18.646 12.5949 18.6451 12.4267V12.4169C18.6451 12.0394 18.7966 11.689 19.0717 11.43C19.9155 10.6359 21.2984 11.2075 21.3532 12.3498C21.3662 12.6233 21.1901 12.7394 21.0194 12.7394ZM30.4635 24.7432C27.2975 27.221 22.8046 28.9935 21.257 29.2885C20.9391 29.3491 20.7306 29.656 20.7912 29.9739C20.8518 30.2919 21.1596 30.5004 21.4766 30.4397C23.0953 30.131 27.5305 28.4074 30.86 25.9157C30.9419 26.1493 31.0367 26.4151 31.1232 26.6518C31.2951 27.1221 31.1478 27.6445 30.7569 27.952C27.6012 30.432 24.2759 31.8109 22.0421 32.5307C20.7078 32.9608 19.2585 32.9501 17.9575 32.5307C15.7236 31.8108 12.3984 30.432 9.24272 27.952C8.85184 27.6447 8.70433 27.1224 8.87645 26.6517C8.87988 26.6423 8.88324 26.6328 8.88668 26.6234C8.97184 26.3901 9.06622 26.1254 9.13959 25.9156C12.3904 28.3476 16.8135 30.1139 18.5225 30.4399C18.8408 30.5004 19.1473 30.292 19.2079 29.9742C19.2685 29.6563 19.06 29.3494 18.7422 29.2888C17.2812 29.0102 12.7728 27.2752 9.53609 24.7431C10.012 23.2878 10.5634 21.4175 10.9969 19.4241L18.4151 23.0407C19.4028 23.5223 20.5585 23.5411 21.5848 23.0407L29.0026 19.4243C29.4361 21.4176 29.9875 23.2879 30.4635 24.7432ZM34.3554 32.6845L34.5592 29.6031H35.5138L35.7176 32.6845H34.3554ZM35.7858 27.0281V28.4311H34.2873V27.0281C34.2873 26.8794 34.4129 26.7538 34.5616 26.7538H35.5114C35.66 26.7538 35.7858 26.8794 35.7858 27.0281Z" fill="#00BED9"/>
</svg>
