<svg width="40" height="40" viewBox="0 0 40 40" fill="none" xmlns="http://www.w3.org/2000/svg">
<path fill-rule="evenodd" clip-rule="evenodd" d="M14.1777 31.9719C14.3856 30.8088 15.2739 25.8405 15.2739 25.8403C15.2623 25.625 15.2311 25.4557 15.1174 25.3458C15.0459 25.2767 14.9442 25.2415 14.8176 25.218C14.4119 25.1426 13.2014 25.1867 12.6452 25.2122L7.24713 33.8415C7.23459 33.8617 7.2207 33.8809 7.20557 33.8992C6.34172 34.9486 5.40008 35.0307 4.6476 34.6795C3.91851 34.3391 3.59929 33.734 3.50839 33.1875C3.3978 32.5231 3.51662 32.183 4.05678 31.2326C4.05851 31.2297 4.06015 31.2267 4.06196 31.2238L8.03521 24.5275V18.0362C8.03521 18.0362 4.56008 21.2058 4.56078 21.2052C3.65843 22.098 2.20243 22.0944 1.30376 21.1957C0.885958 20.778 0.625958 20.1717 0.627448 19.5574C0.628938 18.9431 0.875212 18.3547 1.31113 17.923L6.53129 12.7367L6.53192 12.7361C7.20611 12.0685 8.11662 11.694 9.06541 11.694H14.0598C14.4059 11.694 14.7459 11.6028 15.0456 11.4298L19.0099 9.14102C19.5454 8.83185 20.1819 8.748 20.7792 8.90808C21.3765 9.06816 21.9198 9.51765 22.1951 9.99451C22.4702 10.471 22.5903 11.1711 22.4304 11.7679C22.2703 12.3653 21.8795 12.8746 21.3439 13.1838L16.6037 15.9206C16.6037 15.9206 16.9485 20.6646 16.9485 20.6645C17.2791 20.9391 17.962 21.5427 18.5079 22.2652C19.1822 23.1575 19.7213 24.7318 19.4773 26.3237C19.4761 26.3318 19.4747 26.3398 19.473 26.3478L18.8741 29.3522C21.0227 27.9054 22.929 26.2438 24.3565 24.6157C27.3616 21.1883 27.8711 17.6951 28.2365 14.1792H24.8009C24.5706 14.1792 24.3648 14.0355 24.2854 13.8194C24.2061 13.6032 24.27 13.3606 24.4456 13.2116L31.4709 7.25114C31.6761 7.0771 31.9772 7.07734 32.182 7.25185L39.1795 13.2122C39.3547 13.3615 39.4182 13.604 39.3387 13.8199C39.2592 14.0358 39.0536 14.1792 38.8235 14.1792H35.2056C34.3991 18.8276 33.3009 25.3737 28.0576 29.6675C24.3762 32.6823 20.3256 34.008 17.1056 34.842C10.2591 36.6151 3.05474 36.7208 3.05474 36.7208C2.768 36.7249 2.52635 36.5078 2.5 36.2222C2.47372 35.9366 2.67153 35.679 2.95427 35.6307C2.95427 35.6307 8.2589 34.7225 14.1777 31.9719ZM17.591 30.1726C17.7692 29.2785 18.3937 26.1454 18.3939 26.1445C18.5832 24.8829 18.1664 23.6344 17.6319 22.9271C16.9725 22.0544 16.0855 21.379 16.0855 21.379C15.9603 21.2836 15.882 21.1391 15.8707 20.9821L15.4836 15.6569C15.4683 15.4471 15.5744 15.2469 15.7567 15.1417L20.7949 12.2329C21.0783 12.0693 21.285 11.7998 21.3697 11.4838C21.4545 11.1672 21.39 10.7962 21.2442 10.5435C21.0984 10.2912 20.8111 10.0534 20.4951 9.96871C20.179 9.884 19.8423 9.9284 19.5589 10.0919L15.5946 12.3807C15.1279 12.6501 14.5986 12.792 14.0598 12.792H9.06541C8.40604 12.792 7.77333 13.0522 7.3047 13.5162L2.08502 18.702L2.08439 18.7026C1.85545 18.9293 1.72627 19.2379 1.72549 19.5601C1.7247 19.8823 1.86109 20.2002 2.08015 20.4193C2.55309 20.8922 3.32031 20.8928 3.79325 20.4198C3.79921 20.4139 3.80525 20.4081 3.81153 20.4024L8.21427 16.3867C8.37498 16.2402 8.60698 16.2022 8.80596 16.29C9.00494 16.3779 9.13325 16.5748 9.13325 16.7923V24.6781C9.13325 24.7767 9.10674 24.8735 9.05639 24.9583L5.00878 31.7798C4.66439 32.3855 4.52086 32.5824 4.59153 33.0072C4.63286 33.2559 4.78031 33.5296 5.11208 33.6845C5.48164 33.8569 5.91137 33.7302 6.336 33.2275L11.8663 24.387C11.9613 24.2351 12.1245 24.1391 12.3034 24.1299C12.3034 24.1299 14.4291 24.0289 15.0181 24.1384C15.3904 24.2075 15.6701 24.353 15.8803 24.5562C16.1794 24.8452 16.351 25.2681 16.3737 25.8555C16.3753 25.8949 16.3725 25.9344 16.3656 25.9733L15.3987 31.3817C15.5234 31.3189 15.6482 31.2554 15.7732 31.1911C16.39 30.8733 16.9974 30.5322 17.591 30.1726ZM34.7438 13.0812H37.3323L31.8253 8.39043L26.2965 13.0812H28.8445C28.9998 13.0812 29.1478 13.1469 29.2518 13.2621C29.3559 13.3773 29.4064 13.5311 29.3907 13.6856C28.9922 17.6173 28.5402 21.5097 25.1822 25.3396C23.018 27.8078 19.7958 30.3537 16.2762 32.1671C13.6789 33.5053 11.1175 34.4897 8.95553 35.1934C11.3056 34.924 14.097 34.4869 16.8304 33.779C19.925 32.9775 23.8238 31.7155 27.362 28.818C32.5431 24.575 33.4212 18.0006 34.2031 13.5355C34.249 13.2729 34.4772 13.0812 34.7438 13.0812ZM11.9589 3.2793C14.015 3.2793 15.6843 4.94863 15.6843 7.00479C15.6843 9.06087 14.015 10.7302 11.9589 10.7302C9.90274 10.7302 8.23341 9.06087 8.23341 7.00479C8.23341 4.94863 9.90274 3.2793 11.9589 3.2793ZM11.9589 4.37734C10.5088 4.37734 9.33145 5.55467 9.33145 7.00479C9.33145 8.4549 10.5088 9.63216 11.9589 9.63216C13.4089 9.63216 14.5863 8.4549 14.5863 7.00479C14.5863 5.55467 13.4089 4.37734 11.9589 4.37734Z" fill="#5F1DFD"/>
</svg>
