<svg width="40" height="40" viewBox="0 0 40 40" fill="none" xmlns="http://www.w3.org/2000/svg">
<path d="M14.8333 5.83333H23.6666V8.75H22.3333C21.9651 8.75 21.6666 9.0485 21.6666 9.41667C21.6666 9.78483 21.9651 10.0833 22.3333 10.0833H23.6666V12.25H20.6666C20.2984 12.25 19.9999 12.5485 19.9999 12.9167C19.9999 13.2848 20.2984 13.5833 20.6666 13.5833H23.6666C23.6666 14.5673 23.6481 15.0255 23.7504 15.75H22.3333C21.9651 15.75 21.6666 16.0485 21.6666 16.4167C21.6666 16.7848 21.9651 17.0833 22.3333 17.0833H24.5564C24.9885 17.0833 25.3063 16.6779 25.2041 16.2588C25.0686 15.7028 24.9998 15.1309 24.9998 14.5588V5.16667C24.9998 4.7985 24.7013 4.5 24.3332 4.5H14.8333C14.4657 4.5 14.1666 4.20092 14.1666 3.83333V2C14.1666 1.63242 14.4657 1.33333 14.8333 1.33333H25.1666C25.5342 1.33333 25.8333 1.63242 25.8333 2V3.31992C25.8333 3.68808 26.1318 3.98658 26.4999 3.98658C26.8681 3.98658 27.1666 3.68808 27.1666 3.31992V2C27.1666 0.897167 26.2694 0 25.1666 0H14.8333C13.7304 0 12.8333 0.897167 12.8333 2V3.83333C12.8333 4.93617 13.7304 5.83333 14.8333 5.83333Z" fill="#00BED9"/>
<path d="M15.8537 23.8054C16.0586 23.4996 15.9769 23.0854 15.671 22.8805C15.3651 22.6755 14.951 22.7573 14.7461 23.0633L8.02564 33.094C7.08097 34.5262 8.11047 36.4377 9.82572 36.4377H30.1744C31.8863 36.4377 32.9221 34.5306 31.9716 33.0897L26.0481 24.2602C25.53 23.4878 24.5272 23.1723 23.6636 23.5103C21.8984 24.2012 20.9006 23.6784 19.3612 22.9843C19.0256 22.8329 18.6307 22.9823 18.4795 23.318C18.3281 23.6537 18.4776 24.0484 18.8132 24.1998C18.903 24.2403 18.9922 24.281 19.0811 24.3215C20.4808 24.9604 21.9283 25.6212 24.1495 24.7518C24.4354 24.6398 24.7681 24.7455 24.9408 25.0029L30.8613 33.8281C31.2227 34.3761 30.8305 35.1043 30.1743 35.1043H9.82564C9.16356 35.1043 8.78172 34.3692 9.13597 33.8321L15.8537 23.8054Z" fill="#00BED9"/>
<path d="M35.1898 31.059L26.9094 19.5277C26.7842 19.3533 26.5827 19.2499 26.3679 19.2499H20.6667C20.2985 19.2499 20 19.5484 20 19.9165C20 20.2847 20.2985 20.5832 20.6667 20.5832H26.0259L34.1068 31.8367C34.6366 32.5745 34.9167 33.4445 34.9167 34.3528C34.9167 36.7314 32.9815 38.6665 30.6029 38.6665H9.39708C7.0185 38.6665 5.08333 36.7314 5.08333 34.3528C5.08333 33.4445 5.36333 32.5745 5.89317 31.8367L14.7357 19.5227C15.7808 18.0672 16.3333 16.3506 16.3333 14.5586V8.02946C16.3333 7.66129 16.0348 7.36279 15.6667 7.36279C15.2985 7.36279 15 7.66129 15 8.02946V14.5586C15 16.0699 14.5341 17.5175 13.6527 18.745L4.81017 31.059C4.11658 32.0248 3.75 33.1638 3.75 34.3528C3.75 37.4666 6.28325 39.9999 9.39708 39.9999H30.603C33.7168 39.9999 36.25 37.4666 36.25 34.3528C36.25 33.1638 35.8834 32.0248 35.1898 31.059Z" fill="#00BED9"/>
</svg>
