<svg width="40" height="40" viewBox="0 0 40 40" fill="none" xmlns="http://www.w3.org/2000/svg">
<g clip-path="url(#clip0_8133_340)">
<path d="M20.8594 6.83594C20.428 6.83594 20.0781 7.1857 20.0781 7.61719C20.0781 8.04867 20.428 8.39844 20.8594 8.39844H23.4279C23.4332 10.2584 24.0368 11.9956 25.0649 13.4137C23.9997 14.452 22.6043 15.1607 21.0356 15.3577C20.6075 15.4114 20.304 15.802 20.3577 16.2301C20.4073 16.6252 20.7438 16.9141 21.1319 16.9141C21.1643 16.9141 21.1972 16.912 21.2302 16.9079C23.1172 16.671 24.8001 15.8291 26.0938 14.5927C27.3876 15.8291 29.0705 16.671 30.9575 16.9079C30.9905 16.912 31.0233 16.9141 31.0558 16.9141C31.4438 16.9141 31.7803 16.6251 31.8299 16.2301C31.8837 15.802 31.5802 15.4113 31.152 15.3577C29.5834 15.1607 28.1879 14.452 27.1227 13.4137C28.1508 11.9955 28.7545 10.2584 28.7598 8.39844H31.3281C31.7595 8.39844 32.1094 8.04867 32.1094 7.61719C32.1094 7.1857 31.7595 6.83594 31.3281 6.83594H26.875V4.80469C26.875 4.3732 26.5252 4.02344 26.0938 4.02344C25.6623 4.02344 25.3125 4.3732 25.3125 4.80469V6.83594H20.8594ZM26.0938 12.1487C25.3984 11.0584 24.9954 9.76961 24.9906 8.39844H27.1968C27.1921 9.76961 26.7891 11.0584 26.0938 12.1487Z" fill="#F02A00"/>
<path d="M35.8564 0H29.6094C29.178 0 28.8281 0.349766 28.8281 0.78125C28.8281 1.21273 29.178 1.5625 29.6094 1.5625H35.8564C37.2797 1.5625 38.4375 2.72039 38.4375 4.14367V16.7939C38.4375 18.2171 37.2796 19.375 35.8563 19.375C35.4249 19.375 35.0751 19.7248 35.0751 20.1562V23.462L30.5073 19.5621C30.3659 19.4413 30.186 19.375 30 19.375H16.3311C14.9078 19.375 13.75 18.2171 13.75 16.7938V4.14367C13.75 2.72039 14.9078 1.5625 16.3311 1.5625H22.5781C23.0095 1.5625 23.3594 1.21273 23.3594 0.78125C23.3594 0.349766 23.0095 0 22.5781 0H16.3311C14.0463 0 12.1875 1.85883 12.1875 4.14367V14.0625H4.14359C1.85883 14.0625 0 15.9213 0 18.2062V30.8564C0 32.8741 1.44984 34.5597 3.36234 34.9262V39.2188C3.36234 39.5236 3.53969 39.8005 3.81648 39.9282C3.92109 39.9764 4.03266 40 4.14352 40C4.32609 40 4.50664 39.9361 4.65094 39.8129L10.2881 35H23.6688C25.9537 35 27.8125 33.1412 27.8125 30.8563V20.9375H29.7119L35.3491 25.7504C35.4934 25.8736 35.6739 25.9376 35.8565 25.9375C35.9673 25.9375 36.0789 25.9139 36.1835 25.8657C36.4603 25.738 36.6377 25.4611 36.6377 25.1562L36.6377 20.8637C38.5502 20.4972 40.0001 18.8116 40.0001 16.7939V4.14367C40 1.85883 38.1412 0 35.8564 0ZM13.919 21.8364L15.4668 25.9377H12.357L13.919 21.8364ZM26.25 30.8563C26.25 32.2796 25.0922 33.4375 23.6689 33.4375H10C9.81398 33.4375 9.63414 33.5038 9.49273 33.6246L4.92484 37.5245V34.2188C4.92484 33.7873 4.575 33.4375 4.14359 33.4375C2.72031 33.4375 1.5625 32.2796 1.5625 30.8563V18.2062C1.5625 16.7829 2.72031 15.625 4.14359 15.625H12.1875V16.7938C12.1875 17.8366 12.5755 18.7899 13.2137 19.5191C13.1291 19.607 13.0598 19.7116 13.0116 19.8295C13.0091 19.8355 13.0067 19.8414 13.0045 19.8474L9.66047 28.6277C9.50688 29.0309 9.70922 29.4823 10.1124 29.6359C10.5156 29.7894 10.967 29.587 11.1205 29.1838L11.7618 27.5002H16.0563L16.6909 29.1816C16.8089 29.4945 17.1061 29.6872 17.4219 29.6872C17.5135 29.6872 17.6067 29.6709 17.6976 29.6366C18.1012 29.4843 18.3049 29.0335 18.1526 28.6298L15.1887 20.7761C15.5518 20.8804 15.9347 20.9375 16.3309 20.9375H26.25V30.8563Z" fill="#F02A00"/>
<path d="M26.0938 1.5625C26.2992 1.5625 26.5008 1.47891 26.646 1.33359C26.7914 1.18828 26.875 0.986719 26.875 0.78125C26.875 0.575781 26.7914 0.374219 26.646 0.228906C26.5008 0.0835938 26.2992 0 26.0938 0C25.8883 0 25.6867 0.0835938 25.5414 0.228906C25.396 0.374219 25.3125 0.575781 25.3125 0.78125C25.3125 0.986719 25.396 1.18828 25.5414 1.33359C25.6868 1.47891 25.8883 1.5625 26.0938 1.5625Z" fill="#F02A00"/>
</g>
<defs>
<clipPath id="clip0_8133_340">
<rect width="40" height="40" fill="white"/>
</clipPath>
</defs>
</svg>
