<svg width="40" height="40" viewBox="0 0 40 40" fill="none" xmlns="http://www.w3.org/2000/svg">
<path d="M8.12378 1.24902C7.09587 1.24902 6.25 2.09489 6.25 3.12283V23.1228C6.25 23.957 7.50122 23.957 7.50122 23.1228V7.5015H32.4976V23.1228C32.4787 23.9751 33.7667 23.9751 33.7476 23.1228V3.12283C33.7476 2.09489 32.9029 1.24902 31.875 1.24902H8.12378ZM8.12378 2.50027H31.875C32.2321 2.50027 32.4976 2.76576 32.4976 3.12283V6.25025H7.50122V3.12283C7.50122 2.76576 7.76673 2.50027 8.12378 2.50027ZM9.375 3.74906C9.02981 3.74906 8.75 4.02891 8.75 4.37407C8.75 4.71926 9.02981 4.99901 9.375 4.99901C9.72016 4.99901 10 4.71926 10 4.37407C10 4.02891 9.72016 3.74906 9.375 3.74906ZM11.875 3.74906C11.5298 3.74906 11.25 4.02891 11.25 4.37407C11.25 4.71926 11.5298 4.99901 11.875 4.99901C12.2202 4.99901 12.5 4.71926 12.5 4.37407C12.5 4.02891 12.2202 3.74906 11.875 3.74906ZM14.375 3.74906C14.0298 3.74906 13.75 4.02891 13.75 4.37407C13.75 4.71926 14.0298 4.99901 14.375 4.99901C14.7202 4.99901 15 4.71926 15 4.37407C15 4.02891 14.7202 3.74906 14.375 3.74906ZM23.0933 3.75029C22.2494 3.80769 22.307 5.02098 23.1226 5.00031H30.625C31.4401 4.98141 31.4401 3.76836 30.625 3.75029H23.0933ZM3.12744 5.00031C2.09951 5.00031 1.25 5.84495 1.25 6.87288V29.374C1.25 30.402 2.09951 31.2478 3.12744 31.2478H36.8762C37.9042 31.2478 38.75 30.402 38.75 29.374V6.87281C38.75 5.84488 37.9042 5.00023 36.8762 5.00023H35.6262C34.7742 4.98134 34.7742 6.26915 35.6262 6.25025H36.8762C37.2333 6.25025 37.4988 6.51574 37.4988 6.87281V25.0003H2.5V6.87281C2.5 6.51574 2.77039 6.25025 3.12744 6.25025H4.37256C5.22458 6.26915 5.22458 4.98134 4.37256 5.00023L3.12744 5.00031ZM21.8823 9.98928C21.6076 9.98742 21.3639 10.1653 21.2817 10.4276L17.5305 21.6763C17.266 22.4673 18.4526 22.864 18.717 22.073L22.4683 10.8206C22.6097 10.4159 22.311 9.99212 21.8823 9.98928ZM24.5996 13.6026L27.7734 16.2503L24.5996 18.8943C23.9215 19.4252 24.7588 20.427 25.4016 19.8538L29.1479 16.73C29.4471 16.4802 29.4471 16.0205 29.1479 15.7706L25.4016 12.6419C25.2896 12.546 25.1474 12.4928 24.9683 12.4931C24.3775 12.5448 24.1633 13.2495 24.5996 13.6026ZM14.9841 12.4942C14.8434 12.4989 14.7083 12.5509 14.6008 12.6419L10.8508 15.7705C10.5517 16.0204 10.5517 16.4801 10.8508 16.7299L14.6008 19.8538C15.2458 20.4545 16.1071 19.4192 15.3992 18.8943L12.2253 16.2502L15.3992 13.6025C15.861 13.2244 15.5807 12.476 14.9841 12.4942ZM2.5 26.2515H37.4988V29.374C37.4988 29.7311 37.2333 29.9966 36.8762 29.9966H3.12744C2.77039 29.9966 2.5 29.7311 2.5 29.374V26.2515ZM21.2842 27.5003L18.7195 27.5015C17.9228 27.5967 17.9763 28.7253 18.7488 28.7466H21.25C22.1083 28.8225 22.1798 27.5175 21.2842 27.5003ZM16.4941 32.449C16.2433 32.4442 16.0135 32.5888 15.9106 32.8176C15.6097 33.4632 15.0705 34.217 14.1394 34.9978H13.125C12.0971 34.9978 11.2524 35.8486 11.2524 36.8765V38.1216C11.2512 38.4668 11.5298 38.7477 11.875 38.749H28.1238C28.4709 38.7503 28.7525 38.4687 28.7512 38.1216V36.8765C28.7512 35.8486 27.9017 34.9978 26.8738 34.9978H25.8606C24.9296 34.217 24.3903 33.4631 24.0894 32.8176C23.9835 32.5828 23.7447 32.437 23.4875 32.4502C23.041 32.4738 22.7622 32.9436 22.9565 33.3463C23.2002 33.8688 23.5722 34.4293 24.0735 34.9978H15.9265C16.4277 34.4293 16.7998 33.8688 17.0435 33.3463C17.2419 32.9364 16.9494 32.4587 16.4941 32.449ZM13.125 36.2491H26.8738C27.2308 36.2491 27.5012 36.5194 27.5012 36.8765V37.4991H12.5024V36.8765C12.5024 36.5194 12.7679 36.2491 13.125 36.2491Z" fill="#5F1DFD"/>
</svg>
