<svg width="40" height="40" viewBox="0 0 40 40" fill="none" xmlns="http://www.w3.org/2000/svg">
<path d="M2.75355 9.52572C2.67409 8.62445 2.72656 7.71693 2.90947 6.83091C3.15409 5.7275 3.63458 4.81149 4.3372 4.10912C5.32167 3.12389 6.70618 2.58393 8.447 2.50398C9.2903 2.47224 10.1346 2.52996 10.9654 2.67563L11.1868 1.41706C10.265 1.2554 9.32853 1.19168 8.39353 1.22741C6.31914 1.32311 4.65028 1.9885 3.43394 3.20585C2.55541 4.08413 1.95873 5.21203 1.66113 6.55955C1.66063 6.56205 1.65989 6.5648 1.65939 6.5673C1.45 7.57676 1.39028 8.61121 1.48098 9.63791L2.75355 9.52572Z" fill="#1C43FE"/>
<path d="M5.55561 17.8742C5.17081 17.1721 4.818 16.4665 4.50667 15.7764L3.34204 16.3018C3.66687 17.0217 4.03467 17.7576 4.43546 18.4884L5.55561 17.8742Z" fill="#1C43FE"/>
<path d="M1.85254 11.9944C2.0127 12.6788 2.20735 13.3549 2.43573 14.0198L3.64483 13.6068C3.43044 12.9826 3.24729 12.3482 3.09712 11.7061L1.85254 11.9944Z" fill="#1C43FE"/>
<path d="M10.5447 24.9104C10.489 24.8467 10.4335 24.7834 10.3783 24.7197L9.41406 25.5575C9.47053 25.6227 9.52725 25.688 9.58472 25.7532C9.90905 26.1225 10.2466 26.4948 10.5882 26.8601C10.7414 27.0235 10.896 27.1867 11.0524 27.3491L11.9732 26.4633C11.8208 26.3051 11.6701 26.1465 11.5214 25.9873C11.1886 25.6317 10.8603 25.2692 10.5447 24.9104Z" fill="#1C43FE"/>
<path d="M7.87035 23.6802L8.87881 22.8961C8.78611 22.7767 8.69441 22.6573 8.60345 22.5373C8.21441 22.0256 7.83786 21.5061 7.48455 20.9937L6.43262 21.7188C6.79742 22.2477 7.18546 22.7832 7.58625 23.3102C7.6797 23.4338 7.77465 23.557 7.87035 23.6802Z" fill="#1C43FE"/>
<path d="M12.1389 28.4428C13.346 29.6207 14.6161 30.7321 15.9436 31.7718C17.7442 33.1888 19.6659 34.4446 21.6868 35.524C22.8672 36.1524 24.0905 36.6966 25.3473 37.1529L24.1805 37.487L24.5318 38.7153L27.7985 37.7806C28.1376 37.6836 28.3337 37.3298 28.2368 36.9905L27.3855 34.0151L26.1569 34.3664L26.6981 36.2566C25.1727 35.7739 23.6957 35.151 22.286 34.3956C20.3318 33.3517 18.4735 32.1373 16.7327 30.7671C15.4411 29.7556 14.2053 28.6744 13.0309 27.5288L12.1389 28.4428Z" fill="#1C43FE"/>
<path d="M38.3122 28.6519C38.0513 27.0222 37.5123 25.2692 36.71 23.4414L35.5401 23.9549C36.2987 25.6832 36.8067 27.3318 37.0503 28.8535C37.5076 31.7105 37.0054 33.964 35.5984 35.3715C34.9015 36.0684 33.9952 36.5461 32.9046 36.792C32.0228 36.9904 31.0231 37.0376 29.9324 36.9332C29.6635 36.9074 29.3862 36.8717 29.1078 36.8277L28.9084 38.0896C29.2118 38.1375 29.5154 38.1763 29.8105 38.2047C30.226 38.2445 30.6308 38.2645 31.0248 38.2645C31.7512 38.269 32.4758 38.1928 33.1854 38.0381C34.5157 37.738 35.6313 37.1448 36.5016 36.2745C38.2105 34.5657 38.8364 31.9301 38.3122 28.6519Z" fill="#1C43FE"/>
<path d="M35.2151 20.4829L34.1052 21.1156C34.4128 21.6553 34.7029 22.199 34.9675 22.7315L36.1119 22.1635C35.8368 21.6088 35.5352 21.0436 35.2151 20.4829Z" fill="#1C43FE"/>
<path d="M32.2498 16.042L31.2349 16.8181C31.7111 17.441 32.1759 18.0844 32.6169 18.7313L33.6728 18.0119C33.2186 17.3458 32.7398 16.6829 32.2498 16.042Z" fill="#1C43FE"/>
<path d="M29.0915 12.3496L28.1677 13.2316C28.7084 13.7981 29.2409 14.3875 29.7501 14.9829L30.7211 14.1526C30.1966 13.5397 29.6484 12.933 29.0915 12.3496Z" fill="#1C43FE"/>
<path d="M13.2605 5.71042L14.5098 5.44332L14.0973 3.5136C15.2697 3.92938 16.4106 4.43036 17.5102 5.0118C19.4389 6.03025 21.275 7.21512 22.9968 8.5539C23.8086 9.18032 24.6264 9.8602 25.4272 10.5741C25.8712 10.9706 26.3185 11.3859 26.7563 11.8087C26.9459 11.9918 27.1396 12.1825 27.3325 12.3749L28.2357 11.4716C28.0378 11.2739 27.8389 11.0781 27.6435 10.8897C27.1943 10.4554 26.7348 10.0286 26.2783 9.62058C25.4547 8.88672 24.6134 8.18735 23.7796 7.54394C22.9676 6.91253 22.1268 6.31435 21.2642 5.74815C21.7542 5.4718 22.2464 5.21019 22.7284 4.97057L22.16 3.82643C21.5868 4.11078 21.0016 4.42411 20.4209 4.75694L20.8267 5.46506C19.9407 4.90061 19.0344 4.37314 18.1074 3.88215C17.2816 3.44614 16.4343 3.0536 15.568 2.70528L16.6937 2.46491L16.4273 1.21533L13.1048 1.92545C12.7598 1.99916 12.5399 2.33848 12.6136 2.68355L13.2605 5.71042Z" fill="#1C43FE"/>
<path d="M1.41399 28.7515C1.25233 29.6732 1.18861 30.6097 1.22459 31.5447C1.31979 33.6189 1.98519 35.2875 3.20278 36.5046C4.08106 37.3831 5.20971 37.9793 6.55649 38.2766C6.55899 38.2769 6.56174 38.2776 6.56473 38.2781C7.26886 38.4243 7.98672 38.498 8.70634 38.498C9.01592 38.498 9.32551 38.4845 9.63484 38.4573L9.52265 37.1842C8.62138 37.2642 7.71362 37.2114 6.82784 37.028C5.72418 36.7842 4.80842 36.3042 4.10605 35.6013C3.12108 34.6163 2.58087 33.2316 2.50091 31.4912C2.46918 30.6477 2.5264 29.8037 2.67257 28.9723L1.41399 28.7515Z" fill="#1C43FE"/>
<path d="M16.2984 36.5961C17.0188 36.2716 17.7544 35.9032 18.4847 35.503L17.8711 34.3828C17.1692 34.7674 16.4633 35.1204 15.7729 35.4315L16.2984 36.5961Z" fill="#1C43FE"/>
<path d="M11.9912 38.086C12.6759 37.9258 13.352 37.7312 14.0166 37.5028L13.6036 36.2935C12.9797 36.5081 12.3453 36.6907 11.7029 36.8414L11.9912 38.086Z" fill="#1C43FE"/>
<path d="M24.7166 29.5597L25.5539 30.5247C25.6193 30.4682 25.6845 30.4113 25.75 30.3538C26.1196 30.029 26.4921 29.6909 26.8569 29.3503C27.0203 29.1972 27.1835 29.0425 27.3461 28.8858L26.4601 27.9653C26.302 28.118 26.1433 28.2682 25.9839 28.4171C25.6288 28.7492 25.2665 29.0777 24.9067 29.3936C24.8435 29.4493 24.7803 29.5048 24.7166 29.5597Z" fill="#1C43FE"/>
<path d="M20.9905 32.4533L21.7156 33.5055C22.2446 33.1412 22.78 32.7529 23.3072 32.3521C23.4307 32.2584 23.5539 32.1637 23.677 32.068L22.893 31.0591C22.7738 31.1518 22.6541 31.2437 22.5344 31.3349C22.0224 31.724 21.5035 32.1003 20.9905 32.4533Z" fill="#1C43FE"/>
<path d="M28.8503 2.88762C31.7071 2.43086 33.9608 2.93284 35.3683 4.34009C36.0647 5.03647 36.5427 5.94298 36.7888 7.03365C36.987 7.91567 37.0347 8.91564 36.9298 10.0061C36.9043 10.2744 36.869 10.5515 36.8246 10.8304L38.0864 11.03C38.1344 10.7257 38.1731 10.4221 38.2016 10.128C38.319 8.90289 38.263 7.7675 38.0349 6.75305C37.7351 5.42276 37.1419 4.30661 36.2716 3.43632C34.5625 1.72749 31.9262 1.10132 28.6487 1.62604C27.0198 1.88665 25.2663 2.42586 23.4382 3.22793L23.9517 4.39806C25.68 3.63946 27.3281 3.13124 28.8503 2.88762Z" fill="#1C43FE"/>
<path d="M14.9795 10.188L14.149 9.21729C13.5361 9.74175 12.9296 10.29 12.3462 10.8462L13.2285 11.7704C13.7952 11.2295 14.3846 10.697 14.9795 10.188Z" fill="#1C43FE"/>
<path d="M18.7284 7.32156L18.0085 6.26562C17.3424 6.72013 16.6795 7.19888 16.0388 7.68861L16.8149 8.70357C17.4371 8.22757 18.081 7.76257 18.7284 7.32156Z" fill="#1C43FE"/>
<path d="M37.7774 12.14C37.6805 11.8007 37.3266 11.6046 36.9876 11.7015L34.0119 12.5531L34.3632 13.7814L36.2537 13.2405C35.7707 14.7656 35.1476 16.2429 34.3922 17.6526C33.3483 19.6068 32.1339 21.4651 30.7637 23.2059C29.752 24.4974 28.671 25.733 27.5251 26.9074L28.4394 27.7997C29.6173 26.5926 30.7284 25.3225 31.7684 23.995C33.1854 22.1947 34.4412 20.2727 35.5206 18.2518C36.1488 17.0712 36.6932 15.8483 37.1495 14.5912L37.4836 15.7581L38.7119 15.4068L37.7774 12.14Z" fill="#1C43FE"/>
<path d="M2.54694 27.3393C2.59167 27.3393 2.63665 27.3345 2.68087 27.3248L5.70725 26.6781L5.44014 25.4285L3.51068 25.8413C3.92645 24.6687 4.42719 23.5281 5.00887 22.4284C6.02683 20.4994 7.21219 18.6634 8.55073 16.9416C9.17689 16.13 9.85678 15.3122 10.5709 14.5111C10.9674 14.0669 11.3827 13.6199 11.8055 13.1823C11.9906 12.9907 12.181 12.7968 12.3719 12.6059L11.4687 11.7026C11.2728 11.8985 11.0769 12.0974 10.8867 12.2946C10.4522 12.7443 10.0254 13.2036 9.61741 13.6606C8.8828 14.4839 8.18392 15.3254 7.54077 16.159C6.15701 17.9395 4.93167 19.837 3.87923 21.8312C3.44296 22.6565 3.05017 23.5041 2.70236 24.3706L2.46174 23.2442L1.21216 23.5111L1.92228 26.8335C1.98524 27.1284 2.2456 27.3388 2.54694 27.3393Z" fill="#1C43FE"/>
<path d="M14.4524 14.9035V25.0376C14.4524 25.5783 14.7557 26.3397 16.2939 26.8961C17.2899 27.2564 18.5919 27.4551 19.9747 27.4551H20.0242C20.823 27.4551 21.6201 27.3821 22.4056 27.2374C24.3971 26.8554 25.5517 26.0536 25.5517 25.0376V14.9035C25.5517 14.3626 25.2136 13.6017 23.6752 13.0448C22.679 12.6845 21.3594 12.4858 19.9749 12.4858C18.5899 12.4858 17.2939 12.6845 16.2977 13.0448C14.7595 13.6015 14.4524 14.3626 14.4524 14.9035ZM22.1665 25.9819C21.4436 26.1158 20.71 26.1813 19.9752 26.1775C18.7341 26.1775 17.5925 26.0058 16.7324 25.695C15.8911 25.3904 15.73 25.0851 15.73 25.0376V23.2546C15.9116 23.3508 16.1003 23.4337 16.2939 23.5024C17.2899 23.863 18.5919 24.0614 19.9772 24.0614C21.3627 24.0614 22.6845 23.863 23.6804 23.5024C23.8988 23.4235 24.0345 23.3403 24.2741 23.2541V25.0374C24.2741 25.1573 23.7569 25.6768 22.1665 25.9819ZM24.2741 21.6437C24.2741 21.6917 24.082 21.9967 23.2409 22.3013C22.3806 22.6127 21.216 22.7838 19.9749 22.7838C18.7341 22.7838 17.5925 22.6127 16.7324 22.3013C15.8911 21.9967 15.73 21.6914 15.73 21.6437V19.8841C15.9116 19.9806 16.1003 20.0635 16.2939 20.1322C17.2899 20.4928 18.5919 20.6912 19.9772 20.6912C21.3627 20.6912 22.6845 20.4928 23.6804 20.1322C23.8988 20.0533 24.0345 19.9701 24.2741 19.8841V21.6437ZM23.2409 18.9309C22.3806 19.2422 21.216 19.4134 19.9749 19.4134C18.7341 19.4134 17.5925 19.2422 16.7324 18.9309C15.8911 18.6266 15.73 18.3212 15.73 18.2737V16.5137C15.9119 16.6099 16.1003 16.6928 16.2939 16.7618C17.2901 17.1224 18.5922 17.3208 19.9772 17.3208C21.3622 17.3208 22.6842 17.1221 23.6804 16.7618C23.8988 16.6826 24.0345 16.5994 24.2741 16.5137V18.2737C24.2741 18.3212 24.082 18.6266 23.2409 18.9309ZM16.7092 14.2461C17.5695 13.9346 18.7266 13.7634 19.9672 13.7634C21.2075 13.7634 22.3649 13.9346 23.2252 14.2461C24.066 14.5507 24.2431 14.8558 24.2431 14.9035C24.2431 14.9508 24.066 15.2559 23.2252 15.5604C22.3649 15.872 21.2075 16.0432 19.9672 16.0432C18.7266 16.0432 17.5695 15.8715 16.7092 15.5604C15.8679 15.2559 15.691 14.9508 15.691 14.9035C15.691 14.8558 15.8681 14.5507 16.7094 14.2461H16.7092Z" fill="#1C43FE"/>
</svg>
